HIERARCHY
ROOT Hips
{
	OFFSET 0.000000 0.000000 0.000000
	CHANNELS 6 Xposition Yposition Zposition Zrotation Yrotation Xrotation 
	JOINT LHipJoint
	{
		OFFSET 0.000000 0.000000 0.000000
		CHANNELS 3 Zrotation Yrotation Xrotation
		JOINT LeftUpLeg
		{
			OFFSET 1.363060 -1.794630 0.839290
			CHANNELS 3 Zrotation Yrotation Xrotation
			JOINT LeftLeg
			{
				OFFSET 2.448110 -6.726130 0.000000
				CHANNELS 3 Zrotation Yrotation Xrotation
				JOINT LeftFoot
				{
					OFFSET 2.562200 -7.039590 0.000000
					CHANNELS 3 Zrotation Yrotation Xrotation
					JOINT LeftToeBase
					{
						OFFSET 0.157640 -0.433110 2.322550
						CHANNELS 3 Zrotation Yrotation Xrotation
						End Site
						{
							OFFSET 0.000000 0.000000 0.000000
						}
					}
				}
			}
		}
	}
	JOINT RHipJoint
	{
		OFFSET 0.000000 0.000000 0.000000
		CHANNELS 3 Zrotation Yrotation Xrotation
		JOINT RightUpLeg
		{
			OFFSET -1.305520 -1.794630 0.839290
			CHANNELS 3 Zrotation Yrotation Xrotation
			JOINT RightLeg
			{
				OFFSET -2.542530 -6.985550 0.000000
				CHANNELS 3 Zrotation Yrotation Xrotation
				JOINT RightFoot
				{
					OFFSET -2.568260 -7.056230 0.000000
					CHANNELS 3 Zrotation Yrotation Xrotation
					JOINT RightToeBase
					{
						OFFSET -0.164730 -0.452590 2.363150
						CHANNELS 3 Zrotation Yrotation Xrotation
						End Site
						{
							OFFSET 0.000000 0.000000 0.000000
						}
					}
				}
			}
		}
	}
	JOINT LowerBack
	{
		OFFSET 0.000000 0.000000 0.000000
		CHANNELS 3 Zrotation Yrotation Xrotation
		JOINT Spine
		{
			OFFSET 0.028270 2.035590 -0.193380
			CHANNELS 3 Zrotation Yrotation Xrotation
			JOINT Spine1
			{
				OFFSET 0.056720 2.048850 -0.042750
				CHANNELS 3 Zrotation Yrotation Xrotation
				JOINT Neck
				{
					OFFSET 0.000000 0.000000 0.000000
					CHANNELS 3 Zrotation Yrotation Xrotation
					JOINT Neck1
					{
						OFFSET -0.054170 1.746240 0.172020
						CHANNELS 3 Zrotation Yrotation Xrotation
						JOINT Head
						{
							OFFSET 0.104070 1.761360 -0.123970
							CHANNELS 3 Zrotation Yrotation Xrotation
							End Site
							{
								OFFSET 0.000000 0.000000 0.000000
							}
						}
					}
				}
				JOINT LeftShoulder
				{
					OFFSET 0.000000 0.000000 0.000000
					CHANNELS 3 Zrotation Yrotation Xrotation
					JOINT LeftArm
					{
						OFFSET 3.362410 1.200890 -0.311210
						CHANNELS 3 Zrotation Yrotation Xrotation
						JOINT LeftForeArm
						{
							OFFSET 4.983000 -0.000000 -0.000000
							CHANNELS 3 Zrotation Yrotation Xrotation
							JOINT LeftHand
							{
								OFFSET 3.483560 -0.000000 -0.000000
								CHANNELS 3 Zrotation Yrotation Xrotation
								JOINT LeftFingerBase
								{
									OFFSET 0.000000 0.000000 0.000000
									CHANNELS 3 Zrotation Yrotation Xrotation
									JOINT LeftHandIndex1
									{
										OFFSET 0.715260 -0.000000 -0.000000
										CHANNELS 3 Zrotation Yrotation Xrotation
										End Site
										{
											OFFSET 0.000000 0.000000 0.000000
										}
									}
								}
								JOINT LThumb
								{
									OFFSET 0.000000 0.000000 0.000000
									CHANNELS 3 Zrotation Yrotation Xrotation
									End Site
									{
										OFFSET 0.000000 0.000000 0.000000
									}
								}
							}
						}
					}
				}
				JOINT RightShoulder
				{
					OFFSET 0.000000 0.000000 0.000000
					CHANNELS 3 Zrotation Yrotation Xrotation
					JOINT RightArm
					{
						OFFSET -3.136600 1.374050 -0.404650
						CHANNELS 3 Zrotation Yrotation Xrotation
						JOINT RightForeArm
						{
							OFFSET -5.241900 -0.000000 -0.000000
							CHANNELS 3 Zrotation Yrotation Xrotation
							JOINT RightHand
							{
								OFFSET -3.444170 -0.000000 -0.000000
								CHANNELS 3 Zrotation Yrotation Xrotation
								JOINT RightFingerBase
								{
									OFFSET 0.000000 0.000000 0.000000
									CHANNELS 3 Zrotation Yrotation Xrotation
									JOINT RightHandIndex1
									{
										OFFSET -0.622530 -0.000000 -0.000000
										CHANNELS 3 Zrotation Yrotation Xrotation
										End Site
										{
											OFFSET 0.000000 0.000000 0.000000
										}
									}
								}
								JOINT RThumb
								{
									OFFSET 0.000000 0.000000 0.000000
									CHANNELS 3 Zrotation Yrotation Xrotation
									End Site
									{
										OFFSET 0.000000 0.000000 0.000000
									}
								}
							}
						}
					}
				}
			}
		}
	}
}
MOTION
Frames: 5
Frame Time: 0.008333
8.131476 17.419519 -40.006722 -2.294007 -0.019156 7.586189 0.204826 -1.917757 -2.698667 -10.177171 0.134834 -35.038270 0.543735 13.269859 32.636342 -2.509281 10.402699 7.918160 0.393300 -4.027000 -11.152600 1.250755 -0.397469 1.269019 23.124395 7.531725 -9.504078 1.882876 -6.978230 20.432254 0.165513 -4.950030 17.820180 0.000000 0.000000 0.000000 1.040660 1.316634 -2.338023 0.909069 1.343829 -5.397095 3.173719 1.018436 4.386815 -9.929572 -5.682160 -15.211790 7.970978 -5.252977 4.064176 7.170300 -2.281900 8.389900 -1.165179 -6.664414 -0.686783 -82.125901 3.509586 30.854905 11.937703 -20.851779 -3.285158 -0.222635 1.115602 -7.557708 14.324448 -21.207959 -5.583100 -7.125000 0.000000 0.000000 -9.087800 7.197000 7.981400 -1.137988 8.789121 1.340213 71.493256 -5.568888 39.210753 -35.007947 39.469796 -16.605424 1.934216 2.403119 -29.102915 -33.151685 -20.657158 14.796100 7.125000 0.000000 0.000000 -8.020700 -55.551700 2.086900 
8.135724 17.416469 -39.873628 -2.115100 -0.236331 7.439008 0.072447 -1.976836 -2.737614 -10.010321 -0.160038 -34.880163 0.009470 12.656575 30.663959 -2.360511 10.236213 8.693281 0.380400 -3.960800 -10.966300 1.318566 -0.459203 1.387653 22.898627 7.700307 -8.776031 1.911422 -6.852152 20.188669 0.168485 -4.940236 17.843247 0.000000 0.000000 0.000000 0.797101 1.290256 -2.159364 0.883331 1.312751 -5.447847 3.038563 1.025819 3.989929 -9.588794 -5.450741 -14.868512 7.855066 -5.053633 4.230236 7.002300 -2.213200 8.366300 -1.115340 -6.694565 -0.710339 -82.089493 4.160891 30.887945 12.049467 -21.015070 -3.345639 -0.211711 1.145156 -7.641231 14.357355 -21.818273 -5.740400 -7.125000 0.000000 0.000000 -9.107600 6.550300 8.114900 -1.171568 8.822917 1.321137 71.837566 -5.955979 39.346912 -35.757019 39.947279 -17.157014 1.835134 2.515705 -30.325281 -32.659371 -21.532784 15.128200 7.125000 0.000000 0.000000 -7.368100 -56.532200 2.091100 
8.134525 17.406449 -39.745435 -2.123616 -0.486021 7.524395 0.011209 -2.063176 -2.842478 -9.644897 -0.404450 -34.998592 -0.438163 12.123958 28.915751 -2.176297 9.976116 9.308481 0.344000 -3.768500 -10.426300 1.349129 -0.502552 1.471378 22.914540 7.974656 -8.089063 1.975209 -6.670946 19.774852 0.170779 -4.922008 17.820162 0.000000 0.000000 0.000000 0.672245 1.415168 -2.380378 0.878484 1.457488 -5.449209 3.112064 1.109781 4.102451 -9.388384 -5.395800 -15.008897 7.825745 -5.055860 4.502039 6.900400 -2.222800 8.547200 -1.074064 -6.681766 -0.725326 -82.181489 4.088643 30.969093 11.914066 -20.881331 -3.301113 -0.174747 1.160998 -7.315882 13.978524 -22.051975 -5.627200 -7.125000 0.000000 0.000000 -9.374900 6.354900 8.395500 -1.169418 8.801275 1.300673 71.942805 -6.016441 39.213002 -36.459006 40.387856 -17.692276 1.701375 2.620087 -31.680330 -31.732021 -22.169218 15.061100 7.125000 0.000000 0.000000 -6.170000 -57.147300 1.840900 
8.140516 17.401221 -39.611143 -2.397027 -0.776223 7.595561 -0.050740 -2.134348 -2.963570 -9.158965 -0.400957 -35.060161 -0.829586 11.548781 27.052406 -2.326943 10.602978 10.211023 0.340400 -3.748900 -10.371400 1.354881 -0.534852 1.543845 23.197699 7.948747 -7.487953 2.029339 -6.509429 19.405537 0.172372 -4.890416 17.746065 0.000000 0.000000 0.000000 1.016216 1.701166 -2.690845 0.873282 1.791370 -5.418204 3.279839 1.294331 4.228798 -10.108330 -5.741580 -14.588616 7.871921 -5.369298 4.301265 7.155400 -2.401800 8.344200 -1.129274 -6.612473 -0.685047 -82.454687 4.047026 32.010613 12.008232 -21.000464 -3.317072 -0.114056 1.110104 -7.533379 12.967516 -21.759978 -5.111100 -7.125000 0.000000 0.000000 -10.024600 6.836700 8.900700 -1.226424 8.775291 1.367524 71.777096 -6.156380 38.935885 -36.874886 40.688947 -18.061355 1.646415 2.683110 -32.725373 -31.855953 -22.402410 15.286000 7.125000 0.000000 0.000000 -6.292300 -57.471700 1.926900 
8.155437 17.400350 -39.467266 -2.482364 -1.139952 7.522704 -0.153010 -2.175530 -3.052846 -8.776397 -0.603612 -34.871153 -1.184957 10.991998 25.309195 -2.554899 11.349543 10.737923 0.322200 -3.648300 -10.089200 1.380005 -0.597124 1.642840 23.216745 7.817183 -6.735736 2.088821 -6.310603 18.953843 0.173439 -4.875189 17.719971 0.000000 0.000000 0.000000 1.129762 1.702054 -2.839501 0.888627 1.768905 -5.374337 3.372074 1.284366 4.533617 -10.321158 -5.596473 -14.771945 8.085185 -5.099074 4.324327 7.400900 -2.254500 8.349500 -1.123833 -6.529218 -0.690855 -82.649169 4.157119 32.742046 12.307080 -21.385262 -3.410502 -0.124486 1.030015 -8.117025 12.732105 -21.025936 -4.850300 -7.125000 0.000000 0.000000 -10.136500 7.678100 8.834400 -1.256015 8.743572 1.398831 71.588085 -5.878319 39.395637 -37.299588 40.987820 -18.423397 1.594562 2.796392 -33.641455 -32.197495 -23.313830 16.061700 7.125000 0.000000 0.000000 -6.606900 -58.649800 2.211100 
